<svg width="26" height="25" viewBox="0 0 26 25" fill="none" xmlns="http://www.w3.org/2000/svg">
<path d="M24.1194 15.7158C23.7711 15.7158 23.4888 15.9951 23.4888 16.3397V21.8799C23.4876 22.9134 22.6414 23.7508 21.597 23.7518H3.903C2.85857 23.7508 2.01243 22.9134 2.0112 21.8799V5.61985C2.01243 4.58665 2.85857 3.74916 3.903 3.74794H9.50204C9.85035 3.74794 10.1326 3.46862 10.1326 3.12397C10.1326 2.77957 9.85035 2.5 9.50204 2.5H3.903C2.16245 2.50195 0.751971 3.8976 0.75 5.61985V21.8801C0.751971 23.6024 2.16245 24.9981 3.903 25H21.597C23.3376 24.9981 24.748 23.6024 24.75 21.8801V16.3397C24.75 15.9951 24.4677 15.7158 24.1194 15.7158Z" fill="#151515"/>
<path d="M24.4299 0.831206C23.3216 -0.277069 21.5246 -0.277069 20.4163 0.831206L9.16451 12.082C9.0874 12.1591 9.03172 12.2546 9.00265 12.3596L7.52301 17.7009C7.46216 17.9199 7.524 18.1544 7.68463 18.3153C7.8455 18.4759 8.08003 18.5377 8.29905 18.4771L13.6409 16.9974C13.7458 16.9683 13.8414 16.9126 13.9185 16.8355L25.17 5.58454C26.2767 4.47553 26.2767 2.68022 25.17 1.57121L24.4299 0.831206ZM10.5387 12.4919L19.7474 3.28375L22.7173 6.25335L13.5083 15.4615L10.5387 12.4919ZM9.94547 13.6822L12.3182 16.0549L9.03616 16.9641L9.94547 13.6822ZM24.2782 4.6928L23.6093 5.36161L20.6392 2.39176L21.3083 1.72295C21.924 1.10735 22.9222 1.10735 23.5379 1.72295L24.2782 2.46295C24.8929 3.07929 24.8929 4.07671 24.2782 4.6928Z" fill="#151515"/>
</svg>
