<svg width="22" height="20" viewBox="0 0 22 20" fill="none" xmlns="http://www.w3.org/2000/svg">
<path d="M10.9816 18.9192C10.6979 18.9192 10.4238 18.8152 10.2104 18.6266C9.40359 17.9147 8.62625 17.2466 7.94067 16.657C6.1664 15.2294 4.50912 13.6597 2.98494 11.9633C1.75279 10.625 1.04727 8.87894 1.00091 7.05293C0.974108 5.47004 1.53941 3.93508 2.58415 2.75396C3.09131 2.19629 3.7087 1.75209 4.39649 1.45001C5.08428 1.14792 5.8272 0.994673 6.5773 1.00014C7.71521 0.995233 8.82102 1.3805 9.71348 2.09279C10.1974 2.47441 10.6244 2.92415 10.9816 3.42824C11.3402 2.92386 11.7687 2.4741 12.2541 2.09279C13.1454 1.38143 14.2495 0.996223 15.386 1.00014C16.1361 0.994673 16.879 1.14792 17.5668 1.45001C18.2546 1.75209 18.872 2.19629 19.3791 2.75396C20.4239 3.93508 20.9892 5.47004 20.9624 7.05293C20.9164 8.87716 20.2125 10.6218 18.9827 11.9598C17.4585 13.6562 15.8012 15.2259 14.0269 16.6535C13.3396 17.244 12.5614 17.9139 11.7529 18.6275C11.5394 18.816 11.2654 18.92 10.9816 18.9201V18.9192ZM6.5773 2.18013C5.98891 2.1754 5.40605 2.29514 4.86633 2.53163C4.32661 2.76811 3.84199 3.11609 3.44372 3.55314C2.59852 4.51686 2.14392 5.76634 2.17038 7.05293C2.21523 8.60263 2.82414 10.0814 3.88086 11.2069C5.36344 12.8495 6.9731 14.3705 8.69464 15.7557C9.38714 16.3478 10.1662 17.0186 10.9756 17.7357C11.7927 17.0177 12.5744 16.3452 13.2643 15.7522C14.9858 14.3673 16.5954 12.8465 18.0781 11.2043C19.1358 10.0801 19.7462 8.6023 19.7929 7.05293C19.8191 5.76622 19.3642 4.51673 18.5187 3.55314C18.1205 3.1162 17.636 2.76828 17.0965 2.5318C16.5569 2.29532 15.9742 2.17552 15.386 2.18013C14.5064 2.17646 13.6517 2.47459 12.9622 3.0256C12.421 3.46212 11.9636 3.99496 11.6127 4.59775C11.5472 4.70849 11.4543 4.80018 11.3432 4.86386C11.232 4.92753 11.1064 4.96101 10.9786 4.96101C10.8508 4.96101 10.7252 4.92753 10.614 4.86386C10.5029 4.80018 10.41 4.70849 10.3445 4.59775C9.99369 3.99489 9.53629 3.46203 8.99501 3.0256C8.30549 2.47459 7.45081 2.17646 6.57124 2.18013H6.5773Z" fill="#FF8F40" stroke="#FF8F40"/>
</svg>
