<svg width="227" height="41" viewBox="0 0 227 41" fill="none" xmlns="http://www.w3.org/2000/svg">
<g clip-path="url(#clip0)">
<path fill-rule="evenodd" clip-rule="evenodd" d="M68.2002 28.4C68.2002 35.2 57.2002 40.8 43.7002 40.8C30.2002 40.8 19.2002 35.3 19.2002 28.4C19.2002 26.4 30.1002 24.8 43.7002 24.8C57.2002 24.8 68.2002 26.5 68.2002 28.4Z" fill="#79BAF7"/>
<path fill-rule="evenodd" clip-rule="evenodd" d="M43.7002 24.8C57.2002 24.8 68.2002 26.4 68.2002 28.4C68.2002 30.4 57.2002 32 43.7002 32C30.2002 32 19.2002 30.4 19.2002 28.4C19.2002 26.4 30.2002 24.8 43.7002 24.8Z" fill="#128AF9"/>
<path fill-rule="evenodd" clip-rule="evenodd" d="M68 28.9C66.4 30.6 56.1 32 43.7 32C31.3 32 21 30.7 19.5 28.9C21.1 27.2 31.3 25.8 43.7 25.8C56.1 25.8 66.4 27.1 68 28.9Z" fill="#56A6F0"/>
<path fill-rule="evenodd" clip-rule="evenodd" d="M29.0002 0.100049C34.5002 4.10005 32.6002 16.2001 24.7002 27.2001C16.8002 38.1001 5.80022 43.8 0.300225 39.7001C-1.29978 38.6001 3.80023 28.7 11.8002 17.8C19.7002 6.90005 27.4002 -0.999951 29.0002 0.100049Z" fill="#79BAF6"/>
<path fill-rule="evenodd" clip-rule="evenodd" d="M11.8002 17.8C19.7002 6.90005 27.4002 -0.999951 29.0002 0.100049C30.6002 1.30005 25.5002 11.1 17.6002 22C9.60023 33 1.90022 40.9001 0.300225 39.7001C-1.29978 38.6001 3.80023 28.8 11.8002 17.8Z" fill="#128AF9"/>
<path fill-rule="evenodd" clip-rule="evenodd" d="M29.3002 0.600098C29.7002 2.9001 24.8002 12.0001 17.5002 22.0001C10.3002 32.1001 3.20016 39.6001 0.800163 39.9001C0.300163 37.6001 5.20016 28.5001 12.5002 18.4001C19.8002 8.3001 26.9002 0.800098 29.3002 0.600098Z" fill="#56A6F0"/>
</g>
<path d="M84.415 14.9H86.715V28.999H95.432V31H84.415V14.9ZM108.609 24.974C108.609 25.1427 108.594 25.365 108.563 25.641H98.673C98.811 26.7143 99.2787 27.5807 100.076 28.24C100.889 28.884 101.893 29.206 103.089 29.206C104.546 29.206 105.719 28.7153 106.608 27.734L107.827 29.16C107.275 29.804 106.585 30.2947 105.757 30.632C104.944 30.9693 104.032 31.138 103.02 31.138C101.732 31.138 100.59 30.8773 99.593 30.356C98.5964 29.8193 97.822 29.0757 97.27 28.125C96.7334 27.1743 96.465 26.101 96.465 24.905C96.465 23.7243 96.7257 22.6587 97.247 21.708C97.7837 20.7573 98.512 20.0213 99.432 19.5C100.367 18.9633 101.418 18.695 102.583 18.695C103.748 18.695 104.783 18.9633 105.688 19.5C106.608 20.0213 107.321 20.7573 107.827 21.708C108.348 22.6587 108.609 23.7473 108.609 24.974ZM102.583 20.558C101.525 20.558 100.636 20.88 99.915 21.524C99.2097 22.168 98.7957 23.0113 98.673 24.054H106.493C106.37 23.0267 105.949 22.191 105.228 21.547C104.523 20.8877 103.641 20.558 102.583 20.558ZM118.184 18.695C119.733 18.695 120.959 19.1473 121.864 20.052C122.784 20.9413 123.244 22.2523 123.244 23.985V31H121.036V24.238C121.036 23.0573 120.752 22.168 120.185 21.57C119.618 20.972 118.805 20.673 117.747 20.673C116.551 20.673 115.608 21.0257 114.918 21.731C114.228 22.421 113.883 23.4177 113.883 24.721V31H111.675V18.81H113.791V20.65C114.236 20.0213 114.834 19.5383 115.585 19.201C116.352 18.8637 117.218 18.695 118.184 18.695ZM130.826 31.138C129.83 31.138 128.871 31.0077 127.951 30.747C127.031 30.471 126.311 30.126 125.789 29.712L126.709 27.964C127.246 28.3473 127.898 28.654 128.664 28.884C129.431 29.114 130.205 29.229 130.987 29.229C132.919 29.229 133.885 28.677 133.885 27.573C133.885 27.205 133.755 26.9137 133.494 26.699C133.234 26.4843 132.904 26.331 132.505 26.239C132.122 26.1317 131.57 26.0167 130.849 25.894C129.868 25.7407 129.063 25.5643 128.434 25.365C127.821 25.1657 127.292 24.8283 126.847 24.353C126.403 23.8777 126.18 23.2107 126.18 22.352C126.18 21.248 126.64 20.3663 127.56 19.707C128.48 19.0323 129.715 18.695 131.263 18.695C132.076 18.695 132.889 18.7947 133.701 18.994C134.514 19.1933 135.181 19.4617 135.702 19.799L134.759 21.547C133.763 20.903 132.59 20.581 131.24 20.581C130.305 20.581 129.592 20.7343 129.101 21.041C128.611 21.3477 128.365 21.754 128.365 22.26C128.365 22.6587 128.503 22.973 128.779 23.203C129.055 23.433 129.393 23.6017 129.791 23.709C130.205 23.8163 130.78 23.939 131.516 24.077C132.498 24.2457 133.287 24.4297 133.885 24.629C134.499 24.813 135.02 25.135 135.449 25.595C135.879 26.055 136.093 26.699 136.093 27.527C136.093 28.631 135.618 29.5127 134.667 30.172C133.732 30.816 132.452 31.138 130.826 31.138Z" fill="#2C9AFF"/>
<path d="M159.248 22.651C160.183 22.9117 160.919 23.387 161.456 24.077C161.993 24.7517 162.261 25.6103 162.261 26.653C162.261 28.0483 161.732 29.1217 160.674 29.873C159.631 30.6243 158.106 31 156.097 31H148.415V14.9H155.637C157.477 14.9 158.895 15.268 159.892 16.004C160.904 16.74 161.41 17.7597 161.41 19.063C161.41 19.9063 161.211 20.6347 160.812 21.248C160.429 21.8613 159.907 22.329 159.248 22.651ZM150.715 16.763V21.915H155.43C156.611 21.915 157.515 21.7003 158.144 21.271C158.788 20.8263 159.11 20.1823 159.11 19.339C159.11 18.4957 158.788 17.8593 158.144 17.43C157.515 16.9853 156.611 16.763 155.43 16.763H150.715ZM156.005 29.137C157.308 29.137 158.29 28.9223 158.949 28.493C159.608 28.0637 159.938 27.389 159.938 26.469C159.938 24.675 158.627 23.778 156.005 23.778H150.715V29.137H156.005ZM169.939 18.695C171.626 18.695 172.914 19.109 173.803 19.937C174.708 20.765 175.16 21.9993 175.16 23.64V31H173.067V29.39C172.699 29.9573 172.17 30.3943 171.48 30.701C170.806 30.9923 170.001 31.138 169.065 31.138C167.701 31.138 166.604 30.8083 165.776 30.149C164.964 29.4897 164.557 28.6233 164.557 27.55C164.557 26.4767 164.948 25.618 165.73 24.974C166.512 24.3147 167.754 23.985 169.456 23.985H172.952V23.548C172.952 22.5973 172.676 21.869 172.124 21.363C171.572 20.857 170.76 20.604 169.686 20.604C168.966 20.604 168.26 20.7267 167.57 20.972C166.88 21.202 166.298 21.5163 165.822 21.915L164.902 20.259C165.531 19.753 166.282 19.3697 167.156 19.109C168.03 18.833 168.958 18.695 169.939 18.695ZM169.433 29.436C170.277 29.436 171.005 29.252 171.618 28.884C172.232 28.5007 172.676 27.964 172.952 27.274V25.572H169.548C167.678 25.572 166.742 26.2007 166.742 27.458C166.742 28.0713 166.98 28.5543 167.455 28.907C167.931 29.2597 168.59 29.436 169.433 29.436ZM188.285 29.183V31H178.073V29.574L185.272 20.627H178.211V18.81H188.101V20.259L180.902 29.183H188.285ZM195.679 18.695C197.366 18.695 198.654 19.109 199.543 19.937C200.448 20.765 200.9 21.9993 200.9 23.64V31H198.807V29.39C198.439 29.9573 197.91 30.3943 197.22 30.701C196.546 30.9923 195.741 31.138 194.805 31.138C193.441 31.138 192.344 30.8083 191.516 30.149C190.704 29.4897 190.297 28.6233 190.297 27.55C190.297 26.4767 190.688 25.618 191.47 24.974C192.252 24.3147 193.494 23.985 195.196 23.985H198.692V23.548C198.692 22.5973 198.416 21.869 197.864 21.363C197.312 20.857 196.5 20.604 195.426 20.604C194.706 20.604 194 20.7267 193.31 20.972C192.62 21.202 192.038 21.5163 191.562 21.915L190.642 20.259C191.271 19.753 192.022 19.3697 192.896 19.109C193.77 18.833 194.698 18.695 195.679 18.695ZM195.173 29.436C196.017 29.436 196.745 29.252 197.358 28.884C197.972 28.5007 198.416 27.964 198.692 27.274V25.572H195.288C193.418 25.572 192.482 26.2007 192.482 27.458C192.482 28.0713 192.72 28.5543 193.195 28.907C193.671 29.2597 194.33 29.436 195.173 29.436ZM209.426 18.695C211.112 18.695 212.4 19.109 213.29 19.937C214.194 20.765 214.647 21.9993 214.647 23.64V31H212.554V29.39C212.186 29.9573 211.657 30.3943 210.967 30.701C210.292 30.9923 209.487 31.138 208.552 31.138C207.187 31.138 206.091 30.8083 205.263 30.149C204.45 29.4897 204.044 28.6233 204.044 27.55C204.044 26.4767 204.435 25.618 205.217 24.974C205.999 24.3147 207.241 23.985 208.943 23.985H212.439V23.548C212.439 22.5973 212.163 21.869 211.611 21.363C211.059 20.857 210.246 20.604 209.173 20.604C208.452 20.604 207.747 20.7267 207.057 20.972C206.367 21.202 205.784 21.5163 205.309 21.915L204.389 20.259C205.017 19.753 205.769 19.3697 206.643 19.109C207.517 18.833 208.444 18.695 209.426 18.695ZM208.92 29.436C209.763 29.436 210.491 29.252 211.105 28.884C211.718 28.5007 212.163 27.964 212.439 27.274V25.572H209.035C207.164 25.572 206.229 26.2007 206.229 27.458C206.229 28.0713 206.466 28.5543 206.942 28.907C207.417 29.2597 208.076 29.436 208.92 29.436ZM220.849 20.857C221.232 20.1517 221.799 19.615 222.551 19.247C223.302 18.879 224.214 18.695 225.288 18.695V20.834C225.165 20.8187 224.996 20.811 224.782 20.811C223.586 20.811 222.643 21.1713 221.953 21.892C221.278 22.5973 220.941 23.6093 220.941 24.928V31H218.733V18.81H220.849V20.857Z" fill="#151515"/>
<defs>
<clipPath id="clip0">
<rect width="68.2" height="41" fill="white"/>
</clipPath>
</defs>
</svg>
