<svg width="25" height="20" viewBox="0 0 25 20" fill="none" xmlns="http://www.w3.org/2000/svg">
<path d="M22.9253 0H9.61792C8.47259 0.00119641 7.54445 0.914658 7.54324 2.04188V3.35375H2.07469C0.929355 3.35514 0.00121564 4.2684 0 5.39563V14.6351C0.00121564 15.7624 0.929355 16.6758 2.07469 16.677H2.68737V19.4898C2.68737 19.6766 2.7911 19.8485 2.95785 19.9378C3.12459 20.0272 3.32761 20.0198 3.48706 19.9185L8.59253 16.677H13.9409C15.0863 16.6758 16.0144 15.7624 16.0156 14.6351V13.0182H16.7584L21.5741 16.8864C21.7293 17.011 21.9435 17.0365 22.1244 16.952C22.3053 16.8674 22.4206 16.688 22.4206 16.4908V13.0182H22.9253C24.0706 13.017 24.9988 12.1035 25 10.9763V2.04188C24.9988 0.914658 24.0706 0.00119641 22.9253 0V0ZM14.9785 14.6351C14.9777 15.1988 14.5137 15.6555 13.9411 15.6561H8.43977C8.34009 15.6561 8.24243 15.6846 8.15855 15.7378L3.72471 18.5532V16.1665C3.72471 15.8846 3.49253 15.6561 3.20604 15.6561H2.07469C1.50212 15.6555 1.03795 15.1988 1.03734 14.6351V5.39563C1.03795 4.83212 1.50212 4.37528 2.07469 4.37469H7.54324V10.9763C7.54445 12.1035 8.47259 13.017 9.61792 13.0182H14.9785V14.6351ZM23.9627 10.9763C23.962 11.5398 23.4979 11.9966 22.9253 11.9972H21.9019C21.6157 11.9972 21.3833 12.2258 21.3833 12.5077V15.4154L17.2708 12.1123C17.1782 12.0379 17.0623 11.9972 16.9428 11.9972H9.61792C9.04516 11.9966 8.58119 11.5398 8.58058 10.9763V2.04188C8.58119 1.47837 9.04516 1.02154 9.61792 1.02094H22.9253C23.4979 1.02154 23.962 1.47837 23.9627 2.04188V10.9763Z" fill="#151515"/>
</svg>
