<svg width="18" height="18" viewBox="0 0 18 18" fill="none" xmlns="http://www.w3.org/2000/svg">
<path d="M16.997 8.25259C17.6919 7.64455 17.2619 6.50001 16.3385 6.50001H12.5055C12.0887 6.50001 11.7155 6.24143 11.5692 5.85113L9.93635 1.49689C9.61191 0.631722 8.38813 0.631724 8.06369 1.49689L6.43086 5.85113C6.2845 6.24143 5.91138 6.50001 5.49453 6.50001H1.66146C0.738091 6.50001 0.308046 7.64454 1.00295 8.25258L3.89094 10.7796C4.20429 11.0538 4.31496 11.4934 4.16877 11.8833L2.39415 16.6156C2.07503 17.4666 2.96478 18.2676 3.77769 17.8612L8.55281 15.4736C8.83434 15.3329 9.16571 15.3329 9.44723 15.4736L14.2223 17.8612C15.0353 18.2676 15.925 17.4666 15.6059 16.6156L13.8312 11.8832C13.685 11.4934 13.7957 11.0537 14.1091 10.7795L16.997 8.25259Z" fill="#FCCA46"/>
</svg>
