<svg width="18" height="18" viewBox="0 0 18 18" fill="none" xmlns="http://www.w3.org/2000/svg">
<path d="M16.2326 6.69524C16.6348 6.69524 16.8166 7.19839 16.5073 7.4555L13.7805 9.72218C13.2588 10.1558 13.0746 10.8753 13.3237 11.5062L15.0387 15.8511C15.1819 16.2139 14.8068 16.5645 14.4546 16.3971L9.67374 14.1262C9.24742 13.9237 8.75263 13.9237 8.32631 14.1262L3.54544 16.3971C3.19318 16.5645 2.81811 16.2139 2.96129 15.8511L4.67635 11.5063C4.9254 10.8753 4.74116 10.1558 4.21954 9.72223L1.49265 7.4555C1.18334 7.19839 1.36515 6.69524 1.76738 6.69524H5.50718C6.15186 6.69524 6.73104 6.30119 6.96774 5.70154L8.60027 1.56578C8.74341 1.20314 9.25663 1.20315 9.39977 1.56578L11.0323 5.70154C11.269 6.30119 11.8482 6.69524 12.4929 6.69524H16.2326Z" stroke="#FCCA46" stroke-width="1.14046"/>
</svg>
