<svg width="60" height="60" viewBox="0 0 60 60" fill="none" xmlns="http://www.w3.org/2000/svg">
<circle cx="30" cy="30" r="29" stroke="white" stroke-width="2"/>
<path d="M29.9958 27.948L37.478 35.4299C37.6836 35.636 37.9584 35.7493 38.2514 35.7493C38.5446 35.7493 38.8192 35.636 39.025 35.4299L39.6803 34.7743C39.8865 34.5686 40 34.2937 40 34.0007C40 33.7077 39.8865 33.433 39.6803 33.2272L30.772 24.3187C30.5655 24.1121 30.2896 23.9989 29.9963 23.9997C29.7016 23.9989 29.426 24.1119 29.2193 24.3187L20.3197 33.2189C20.1135 33.4247 20 33.6994 20 33.9925C20 34.2856 20.1135 34.5602 20.3197 34.7662L20.975 35.4216C21.4015 35.8482 22.0958 35.8482 22.5221 35.4216L29.9958 27.948Z" fill="white"/>
</svg>
