<svg width="16" height="18" viewBox="0 0 16 18" fill="none" xmlns="http://www.w3.org/2000/svg">
<path d="M0.0029335 17.4084L1.37101 4.38039C1.39971 4.10765 1.6296 3.90056 1.90384 3.90056H4.47519V3.3143C4.47519 1.48686 5.96206 0 7.78949 0C9.61707 0 11.1039 1.48686 11.1039 3.3143V3.90056H13.6753C13.9495 3.90056 14.1794 4.10765 14.2081 4.38039L15.5762 17.4084C15.592 17.5593 15.543 17.71 15.4415 17.8228C15.3398 17.9356 15.1951 18 15.0434 18H0.535908C0.384022 18 0.239277 17.9356 0.137791 17.8228C0.0360298 17.71 -0.0128593 17.5593 0.0029335 17.4084ZM10.0325 3.3143C10.0325 2.07765 9.02628 1.07144 7.78949 1.07144C6.55285 1.07144 5.54664 2.07765 5.54664 3.3143V3.90056H10.0325V3.3143ZM14.4484 16.9286L13.1928 4.972H11.1039V6.15262C11.1039 6.44843 10.864 6.68834 10.5682 6.68834C10.2724 6.68834 10.0325 6.44843 10.0325 6.15262V4.972H5.54664V6.15262C5.54664 6.44843 5.30672 6.68834 5.01091 6.68834C4.71511 6.68834 4.47519 6.44843 4.47519 6.15262V4.972H2.38628L1.13068 16.9286H14.4484Z" fill="black"/>
</svg>
