<svg width="18" height="18" viewBox="0 0 18 18" fill="none" xmlns="http://www.w3.org/2000/svg">
<path d="M7.4123 14.8246C3.32513 14.8246 0 11.4995 0 7.41229C0 3.32513 3.32513 0 7.4123 0C11.4995 0 14.8246 3.32513 14.8246 7.41229C14.8246 11.4995 11.4995 14.8246 7.4123 14.8246ZM7.4123 1.40517C4.09995 1.40517 1.40517 4.09995 1.40517 7.41229C1.40517 10.7246 4.09995 13.4194 7.4123 13.4194C10.7246 13.4194 13.4194 10.7246 13.4194 7.41229C13.4194 4.09995 10.7246 1.40517 7.4123 1.40517ZM17.7805 17.7942C18.0548 17.5198 18.0548 17.0749 17.7805 16.8006L14.6364 13.6565C14.362 13.3821 13.9171 13.3821 13.6428 13.6565C13.3684 13.9309 13.3684 14.3758 13.6428 14.6501L16.7868 17.7942C16.924 17.9314 17.1039 18 17.2837 18C17.4635 18 17.6433 17.9314 17.7805 17.7942Z" fill="black"/>
</svg>
