<svg width="18" height="17" viewBox="0 0 18 17" fill="none" xmlns="http://www.w3.org/2000/svg">
<path d="M15.5015 10.9904C14.5928 10.0784 13.488 9.38568 12.2713 8.96483C13.1363 8.37134 13.7886 7.51664 14.1328 6.5258C14.477 5.53496 14.4951 4.45997 14.1844 3.45812C13.8737 2.45627 13.2505 1.58014 12.4059 0.957904C11.5614 0.335672 10.5399 0 9.49089 0C8.44187 0 7.42037 0.335672 6.57585 0.957904C5.73134 1.58014 5.10813 2.45627 4.79741 3.45812C4.48668 4.45997 4.50476 5.53496 4.84899 6.5258C5.19321 7.51664 5.84552 8.37134 6.71048 8.96483C5.04102 9.54488 3.59349 10.6301 2.56874 12.0699C1.54399 13.5098 0.992817 15.2328 0.991699 17H2.32011C2.32011 15.0982 3.07568 13.2742 4.42061 11.9294C5.76554 10.5847 7.58966 9.82915 9.49168 9.82915C11.3937 9.82915 13.2178 10.5847 14.5628 11.9294C15.9077 13.2742 16.6633 15.0982 16.6633 17H17.9917C17.9946 15.8834 17.7761 14.7773 17.3486 13.7458C16.9212 12.7142 16.2934 11.7777 15.5015 10.9904ZM9.49129 8.50128C8.78213 8.50128 8.08889 8.29101 7.49924 7.89706C6.90959 7.50311 6.45002 6.94317 6.17863 6.28806C5.90725 5.63295 5.83624 4.91208 5.97459 4.21661C6.11294 3.52115 6.45444 2.88232 6.95589 2.38092C7.45735 1.87951 8.09624 1.53805 8.79178 1.39972C9.48731 1.26138 10.2083 1.33238 10.8634 1.60374C11.5186 1.8751 12.0786 2.33462 12.4726 2.92421C12.8666 3.5138 13.0769 4.20696 13.0769 4.91605C13.0758 5.86659 12.6977 6.7779 12.0255 7.45004C11.3533 8.12217 10.4419 8.50023 9.49129 8.50128Z" fill="black"/>
</svg>
